<svg xmlns="http://www.w3.org/2000/svg" width="73" height="30" fill="none"  xmlns:v="https://vecta.io/nano"><g clip-path="url(#A)"><path d="M0 13.041V.667H4.42c1.227 0 2.171.337 2.832 1.01s.992 1.563.992 2.67c0 .758-.156 1.423-.469 1.995A3.26 3.26 0 0 1 6.44 7.666c-.577.313-1.251.469-2.02.469H2.075v4.906H0zm2.074-6.746h2.183c.589 0 1.046-.174 1.371-.523s.487-.824.487-1.425c0-.565-.162-1.014-.487-1.346s-.782-.494-1.371-.494H2.075v3.788zm7.684 6.746V3.553h1.569l.235 1.335h.108c.325-1.034.866-1.551 1.623-1.551.325 0 .601.048.83.144v1.894h-.667c-.529 0-.956.171-1.281.512s-.487.907-.487 1.688v5.465h-1.93zm5.538 0V3.553h1.93v9.488h-1.93zM15.26 1.948V0h1.966v1.948H15.26zm6.941 11.31c-1.058 0-1.872-.271-2.442-.812s-.859-1.251-.859-2.128c0-.096.004-.162.011-.198l.007-.072h1.984v.144c0 .493.132.86.397 1.1s.589.361.974.361c.361 0 .673-.099.938-.296s.397-.486.397-.859c0-.409-.15-.713-.451-.913s-.764-.386-1.389-.566c-.577-.18-1.046-.358-1.407-.534s-.667-.446-.92-.819-.379-.872-.379-1.497c0-.902.301-1.599.902-2.092s1.383-.74 2.345-.74c.902 0 1.635.237 2.201.711s.848 1.099.848 1.869l-.018.397h-1.966v-.072c-.024-.866-.409-1.299-1.154-1.299-.373 0-.661.102-.866.307a1.03 1.03 0 0 0-.307.758c0 .361.138.625.415.794s.709.337 1.299.505 1.07.339 1.443.512.695.458.967.848.404.919.404 1.58c0 1.046-.303 1.81-.909 2.291s-1.43.722-2.464.722zm7.197-.018c-.733 0-1.259-.228-1.576-.685s-.48-1.034-.48-1.732V5.195h-.902V3.553h.902l.325-2.652h1.605v2.652h1.335v1.641h-1.335v5.61c0 .541.265.812.794.812h.541v1.407c-.156.06-.349.112-.577.155s-.439.061-.631.061zm2.598-.198V3.553h1.93v9.488h-1.93zM31.96 1.948V0h1.966v1.948H31.96zm4.076 11.093V3.553h1.569l.198 1.154h.108c.265-.421.595-.755.992-1.003s.854-.368 1.371-.368c1.648 0 2.471.998 2.471 2.994v6.71h-1.93V6.746c0-.601-.108-1.028-.325-1.281s-.535-.379-.956-.379c-.445 0-.818.198-1.118.595s-.451.908-.451 1.533v5.826h-1.93zm12.028.216c-1.215 0-2.128-.403-2.742-1.209s-.92-2.056-.92-3.752c0-3.307 1.203-4.96 3.608-4.96 1.118 0 1.954.385 2.507 1.154s.83 1.978.83 3.626v.685h-4.942c.012.962.15 1.678.415 2.147s.685.703 1.263.703c.409 0 .737-.172.985-.516s.368-.813.368-1.414h1.912c0 1.142-.301 2.017-.902 2.623s-1.395.913-2.381.913zm-1.641-5.934h2.886c0-.77-.108-1.359-.325-1.768s-.541-.613-.974-.613c-.505 0-.884.198-1.136.595s-.403.992-.451 1.786z" fill="#7fdbff"/></g><path d="M.158 29.472V15.566h2.08v5.757h4.269v-5.757h2.08v13.907h-2.08v-6.082H2.238v6.082H.158zm13.874.243c-1.218 0-2.134-.453-2.75-1.358s-.922-2.311-.922-4.217c0-3.717 1.206-5.575 3.618-5.575 1.121 0 1.96.432 2.514 1.297s.832 2.223.832 4.075v.77h-4.956c.012 1.081.151 1.885.416 2.412s.687.791 1.266.791c.41 0 .738-.193.984-.58s.373-.914.373-1.589h1.917c0 1.284-.302 2.266-.904 2.948s-1.399 1.026-2.388 1.026zm-1.646-6.669h2.894c0-.865-.109-1.527-.326-1.987s-.543-.689-.977-.689a1.23 1.23 0 0 0-1.14.669c-.253.446-.404 1.115-.452 2.007zm8.393 6.669c-.615 0-1.173-.223-1.675-.669s-.749-1.223-.749-2.331c0-1.365.412-2.318 1.237-2.858s1.999-.811 3.516-.811V21.83c0-.459-.083-.818-.25-1.074s-.476-.385-.923-.385c-.434 0-.751.128-.951.385s-.297.568-.297.933v.284h-1.899a3.59 3.59 0 0 1-.018-.446c0-.919.289-1.642.868-2.169s1.345-.791 2.297-.791c1.037 0 1.815.266 2.333.799s.778 1.296.778 2.283v5.514c0 .243.047.422.141.535s.22.174.362.174h.492v1.52c-.362.203-.754.304-1.176.304-.41 0-.757-.126-1.042-.377s-.477-.582-.586-1.001h-.091c-.277.459-.603.807-.977 1.042s-.838.357-1.393.357zm.705-1.845c.506 0 .904-.223 1.194-.669s.43-1.034.43-1.764v-.73c-.854 0-1.528.131-2.022.393s-.742.742-.742 1.431c0 .892.38 1.338 1.14 1.338zm5.694 1.602V14.815h1.936v14.657h-1.936zm6.042.223c-.736 0-1.263-.257-1.581-.77s-.481-1.162-.481-1.946v-6.325h-.904v-1.845h.904l.326-2.98h1.61v2.98h1.339v1.845h-1.339v6.305c0 .608.265.912.796.912h.543v1.581c-.157.068-.35.126-.579.174s-.44.069-.633.069zm2.532-.223V14.815h1.936v5.129h.072a2.95 2.95 0 0 1 .93-1.005c.381-.249.819-.373 1.313-.373 1.652 0 2.478 1.122 2.478 3.365v7.541h-1.935v-7.075c0-.676-.109-1.155-.326-1.439s-.537-.426-.959-.426c-.446 0-.82.223-1.121.669s-.452 1.02-.452 1.723v6.548h-1.936zm11.957.243c-1.206 0-2.09-.45-2.652-1.35s-.839-2.306-.839-4.225c0-1.906.283-3.311.85-4.217s1.429-1.358 2.587-1.358c2.122 0 3.184 1.412 3.184 4.237h-1.99c0-.824-.094-1.43-.282-1.816a.94.94 0 0 0-.912-.576c-.495 0-.854.277-1.078.831s-.333 1.392-.333 2.514v.77c0 1.122.115 1.96.344 2.514s.603.831 1.122.831a.96.96 0 0 0 .923-.6c.193-.397.289-.995.289-1.792h1.917c0 1.365-.269 2.412-.807 3.142s-1.31 1.095-2.323 1.095zm6.563 0c-.615 0-1.172-.223-1.672-.669s-.752-1.223-.752-2.331c0-1.365.414-2.318 1.241-2.858s1.997-.811 3.517-.811V21.83c0-.459-.084-.818-.253-1.074s-.476-.385-.923-.385c-.434 0-.75.128-.948.385a1.47 1.47 0 0 0-.3.933v.284h-1.899a3.59 3.59 0 0 1-.018-.446c0-.919.289-1.642.868-2.169s1.345-.791 2.297-.791c1.037 0 1.815.266 2.333.799s.778 1.296.778 2.283v5.514c0 .243.048.422.145.535a.45.45 0 0 0 .362.174h.488v1.52c-.362.203-.754.304-1.176.304-.41 0-.756-.126-1.038-.377s-.481-.582-.59-1.001h-.09c-.277.459-.603.807-.977 1.042s-.838.357-1.393.357zm.705-1.845c.507 0 .904-.223 1.194-.669s.434-1.034.434-1.764v-.73c-.856 0-1.532.131-2.026.393s-.742.742-.742 1.431c0 .892.38 1.338 1.14 1.338zm5.77 1.602V18.809h1.574l.235 1.5h.109c.326-1.162.868-1.743 1.628-1.743.326 0 .603.054.832.162v2.129h-.669a1.6 1.6 0 0 0-1.284.576c-.326.387-.488 1.019-.488 1.897v6.143h-1.935zm8.755.243c-1.218 0-2.135-.453-2.75-1.358s-.922-2.311-.922-4.217c0-3.717 1.206-5.575 3.618-5.575 1.121 0 1.96.432 2.514 1.297s.832 2.223.832 4.075v.77h-4.956c.012 1.081.151 1.885.416 2.412s.687.791 1.266.791c.41 0 .738-.193.984-.58s.373-.914.373-1.589h1.917c0 1.284-.301 2.266-.904 2.948s-1.399 1.026-2.388 1.026zm-1.646-6.669h2.894c0-.865-.109-1.527-.326-1.987s-.543-.689-.977-.689a1.23 1.23 0 0 0-1.14.669c-.253.446-.404 1.115-.452 2.007z" fill="#0074d9"/><defs><clipPath id="A"><path fill="#fff" d="M0 0h51.346v13.258H0z"/></clipPath></defs></svg>