<svg version="1.1" id="Layer_1" xmlns="http://www.w3.org/2000/svg" xmlns:xlink="http://www.w3.org/1999/xlink" x="0px" y="0px"
	 width="100%" viewBox="0 0 390 100" enable-background="new 0 0 390 100" xml:space="preserve">
<path fill="#FDFDFE" opacity="1.000000" stroke="none" 
	d="
M262.000000,101.000000 
	C174.666687,101.000000 87.833374,101.000000 1.000046,101.000000 
	C1.000031,67.666695 1.000031,34.333389 1.000015,1.000064 
	C130.999939,1.000043 260.999878,1.000043 390.999878,1.000021 
	C390.999908,34.333263 390.999908,67.666527 390.999939,100.999893 
	C348.166656,101.000000 305.333344,101.000000 262.000000,101.000000 
M244.019714,88.954514 
	C243.610672,92.535431 245.688400,92.868980 248.596649,92.859642 
	C273.721619,92.778923 298.847015,92.819099 323.972260,92.796852 
	C325.239410,92.795731 326.506378,92.551872 327.809082,92.417351 
	C327.809082,64.447983 327.809082,36.863102 327.809082,9.202295 
	C326.454132,9.056664 325.303650,8.933006 324.069366,7.984908 
	C324.177338,4.144541 321.334259,4.990127 319.164612,4.987711 
	C294.358154,4.960094 269.551666,4.964229 244.745193,4.985811 
	C243.311951,4.987058 241.878906,5.212059 240.732132,5.308775 
	C240.407074,5.896952 240.261642,6.037386 240.261200,6.178270 
	C240.179352,32.476135 240.134552,58.774170 239.998444,85.071739 
	C239.983261,88.005859 241.568710,88.339462 244.019714,88.954514 
M97.787514,53.043224 
	C100.081741,53.043224 102.375969,53.043224 104.650505,53.043224 
	C105.685410,57.207016 106.596176,60.871372 107.555962,64.732941 
	C110.323364,64.732941 112.923683,64.732941 115.836136,64.732941 
	C112.057495,49.753979 108.341423,35.023029 104.661278,20.434507 
	C94.884636,19.217175 94.931976,19.228331 92.850929,28.059965 
	C90.401764,38.453835 87.859833,48.825844 85.495377,58.637741 
	C79.025208,58.311493 73.172440,58.016376 66.771446,57.693615 
	C66.771446,44.971001 66.771446,32.582893 66.771446,20.261627 
	C64.246368,20.261627 62.312584,20.261627 60.276855,20.261627 
	C60.276855,35.242184 60.276855,49.940453 60.276855,64.983704 
	C69.442574,64.983704 78.241623,64.807503 87.027954,65.065201 
	C90.865685,65.177773 92.591171,64.166199 93.299294,60.119961 
	C93.719101,57.721169 92.321457,53.599262 97.787514,53.043224 
M144.285248,28.380014 
	C142.539383,20.183386 133.845093,18.521385 119.469116,20.783142 
	C119.469116,35.341473 119.469116,49.905693 119.469116,65.251129 
	C125.542831,64.921562 131.394241,65.198830 137.001785,64.159859 
	C145.336197,62.615643 149.512970,53.679337 145.864609,46.067451 
	C144.826172,43.900875 142.936142,42.142464 141.436646,40.196873 
	C141.800095,40.269630 142.163544,40.342392 142.526993,40.415154 
	C143.184677,36.655739 143.842361,32.896324 144.285248,28.380014 
M222.163406,53.206921 
	C221.117264,56.049824 220.071106,58.892723 218.617432,62.843079 
	C219.970490,66.355431 222.548843,67.137024 226.191681,63.488304 
	C227.606125,62.071556 228.935394,59.806713 228.972916,57.901993 
	C229.218475,45.439259 229.099304,32.969334 229.099304,20.256155 
	C226.893967,20.256155 224.823685,20.256155 222.221939,20.256155 
	C222.221939,26.324703 222.227966,32.118526 222.220322,37.912327 
	C222.211884,44.304089 220.521851,45.753139 214.181931,45.110287 
	C209.447342,44.630211 208.172974,41.498386 208.120544,37.457443 
	C208.045792,31.697643 208.101517,25.936150 208.101517,20.244505 
	C205.374252,20.244505 203.436890,20.244505 200.997574,20.244505 
	C200.997574,26.127720 200.989914,31.752064 201.003830,37.376354 
	C201.006714,38.540981 200.964890,39.726360 201.156296,40.866478 
	C202.267654,47.486454 207.123428,51.764282 213.859879,52.073292 
	C216.564240,52.197338 219.273666,52.210781 222.163406,53.206921 
M174.113129,42.500000 
	C174.113129,49.912716 174.113129,57.325432 174.113129,64.761665 
	C176.911865,64.761665 178.868149,64.761665 181.474548,64.761665 
	C181.474548,58.146473 181.474548,51.762909 181.474548,45.033504 
	C187.223114,45.970501 189.789917,43.863953 189.618378,38.426170 
	C186.761765,38.261677 184.170822,38.112484 181.553833,37.961788 
	C181.553833,34.134724 181.553833,30.858795 181.553833,26.935238 
	C186.374908,26.935238 190.936981,26.935238 195.521103,26.935238 
	C195.521103,24.358665 195.521103,22.435629 195.521103,20.295324 
	C188.348434,20.295324 181.466599,20.295324 174.113190,20.295324 
	C174.113190,27.580460 174.113190,34.540279 174.113129,42.500000 
M164.137329,61.287163 
	C164.137329,47.598110 164.137329,33.909058 164.137329,20.285648 
	C160.059204,20.285648 156.809128,20.285648 152.662125,20.285648 
	C153.291031,22.795677 153.447464,26.386814 154.378250,26.600197 
	C157.681931,27.357565 156.966370,29.504644 156.990799,31.499113 
	C157.043625,35.813499 157.007233,40.128975 157.007248,44.444004 
	C157.007294,51.186417 157.007248,57.928833 157.007248,65.319267 
	C159.911057,63.984730 163.646347,67.425560 164.137329,61.287163 
z"/>
<path fill="#225085" opacity="1.000000" stroke="none" 
	d="
M324.153137,8.809347 
	C325.303650,8.933006 326.454132,9.056664 327.809082,9.202295 
	C327.809082,36.863102 327.809082,64.447983 327.809082,92.417351 
	C326.506378,92.551872 325.239410,92.795731 323.972260,92.796852 
	C298.847015,92.819099 273.721619,92.778923 248.596649,92.859642 
	C245.688400,92.868980 243.610672,92.535431 244.013153,88.082550 
	C244.006592,61.285908 244.006592,35.361237 244.006592,8.809346 
	C271.245850,8.809346 297.699493,8.809346 324.153137,8.809347 
M258.836609,62.018143 
	C260.134979,64.468994 261.457550,66.907433 262.722900,69.375206 
	C263.518280,70.926399 264.779602,72.486275 264.883057,74.102974 
	C265.412201,82.370918 265.528137,82.496475 272.565948,78.275597 
	C272.972748,78.031624 273.520752,78.023079 274.677216,78.275818 
	C280.380890,80.064491 286.084564,81.853157 291.358093,83.506943 
	C293.430145,81.608360 295.864014,79.378235 298.630951,77.180084 
	C298.868896,77.154655 299.054169,77.042351 299.896301,76.598526 
	C301.773895,75.069885 303.651520,73.541245 305.713379,72.317429 
	C305.974823,72.556564 306.236298,72.795692 306.268097,73.849159 
	C309.021393,75.094170 311.774689,76.339172 314.527954,77.584183 
	C314.897003,77.233696 315.266052,76.883217 315.635071,76.532738 
	C309.829163,66.740509 309.712677,58.082436 319.970764,51.975491 
	C317.742065,49.272465 315.752777,46.859749 313.887573,43.645721 
	C312.268127,38.432747 310.648712,33.219776 309.171753,27.249826 
	C309.441772,25.908401 309.711792,24.566977 310.208801,22.097996 
	C298.970734,27.379898 289.945160,25.603699 282.312836,16.933874 
	C277.845917,24.848661 270.891083,28.462023 261.804016,28.003120 
	C260.007233,27.355671 258.190979,26.186245 256.420868,26.252375 
	C255.321609,26.293442 253.194794,28.698893 253.417938,29.196966 
	C254.496216,31.603872 256.215027,33.723835 257.847595,36.719841 
	C257.746002,44.646275 258.266571,52.722778 251.753525,59.557999 
	C254.501892,60.224300 256.704468,60.758286 258.836609,62.018143 
z"/>
<path fill="#265387" opacity="1.000000" stroke="none" 
	d="
M97.347275,53.047066 
	C92.321457,53.599262 93.719101,57.721169 93.299294,60.119961 
	C92.591171,64.166199 90.865685,65.177773 87.027954,65.065201 
	C78.241623,64.807503 69.442574,64.983704 60.276855,64.983704 
	C60.276855,49.940453 60.276855,35.242184 60.276855,20.261627 
	C62.312584,20.261627 64.246368,20.261627 66.771446,20.261627 
	C66.771446,32.582893 66.771446,44.971001 66.771446,57.693615 
	C73.172440,58.016376 79.025208,58.311493 85.495377,58.637741 
	C87.859833,48.825844 90.401764,38.453835 92.850929,28.059965 
	C94.931976,19.228331 94.884636,19.217175 104.661278,20.434507 
	C108.341423,35.023029 112.057495,49.753979 115.836136,64.732941 
	C112.923683,64.732941 110.323364,64.732941 107.555962,64.732941 
	C106.596176,60.871372 105.685410,57.207016 104.650505,53.043224 
	C102.375969,53.043224 100.081741,53.043224 97.347275,53.047066 
M98.994316,34.861092 
	C98.100487,38.299622 97.206657,41.738148 96.255646,45.396679 
	C98.818451,45.396679 100.791451,45.396679 103.023552,45.396679 
	C102.585526,43.334763 102.383057,41.710777 101.881065,40.185368 
	C101.227707,38.200016 100.336548,36.292919 98.994316,34.861092 
z"/>
<path fill="#295589" opacity="1.000000" stroke="none" 
	d="
M144.392639,28.758461 
	C143.842361,32.896324 143.184677,36.655739 142.526993,40.415154 
	C142.163544,40.342392 141.800095,40.269630 141.436646,40.196873 
	C142.936142,42.142464 144.826172,43.900875 145.864609,46.067451 
	C149.512970,53.679337 145.336197,62.615643 137.001785,64.159859 
	C131.394241,65.198830 125.542831,64.921562 119.469116,65.251129 
	C119.469116,49.905693 119.469116,35.341473 119.469116,20.783142 
	C133.845093,18.521385 142.539383,20.183386 144.392639,28.758461 
M138.982025,51.546955 
	C137.674332,45.600155 133.691376,43.787346 126.532921,45.891556 
	C126.532921,49.804249 126.532921,53.716938 126.532921,57.576500 
	C135.367142,58.903175 137.169861,58.119408 138.982025,51.546955 
M126.380699,28.069904 
	C126.380699,31.325455 126.380699,34.581005 126.380699,37.758060 
	C134.009079,38.795151 136.831680,36.934719 136.241455,31.663389 
	C135.801880,27.737587 133.470108,26.664923 126.380699,28.069904 
z"/>
<path fill="#295589" opacity="1.000000" stroke="none" 
	d="
M222.072098,52.740742 
	C219.273666,52.210781 216.564240,52.197338 213.859879,52.073292 
	C207.123428,51.764282 202.267654,47.486454 201.156296,40.866478 
	C200.964890,39.726360 201.006714,38.540981 201.003830,37.376354 
	C200.989914,31.752064 200.997574,26.127720 200.997574,20.244505 
	C203.436890,20.244505 205.374252,20.244505 208.101517,20.244505 
	C208.101517,25.936150 208.045792,31.697643 208.120544,37.457443 
	C208.172974,41.498386 209.447342,44.630211 214.181931,45.110287 
	C220.521851,45.753139 222.211884,44.304089 222.220322,37.912327 
	C222.227966,32.118526 222.221939,26.324703 222.221939,20.256155 
	C224.823685,20.256155 226.893967,20.256155 229.099304,20.256155 
	C229.099304,32.969334 229.218475,45.439259 228.972916,57.901993 
	C228.935394,59.806713 227.606125,62.071556 226.191681,63.488304 
	C222.548843,67.137024 219.970490,66.355431 218.617432,62.843079 
	C220.071106,58.892723 221.117264,56.049824 222.072098,52.740742 
z"/>
<path fill="#8EA6C0" opacity="1.000000" stroke="none" 
	d="
M324.111267,8.397127 
	C297.699493,8.809346 271.245850,8.809346 244.006592,8.809346 
	C244.006592,35.361237 244.006592,61.285908 243.912140,87.682381 
	C241.568710,88.339462 239.983261,88.005859 239.998444,85.071739 
	C240.134552,58.774170 240.179352,32.476135 240.261200,6.178270 
	C240.261642,6.037386 240.407074,5.896952 240.732132,5.308775 
	C241.878906,5.212059 243.311951,4.987058 244.745193,4.985811 
	C269.551666,4.964229 294.358154,4.960094 319.164612,4.987711 
	C321.334259,4.990127 324.177338,4.144541 324.111267,8.397127 
z"/>
<path fill="#2B578A" opacity="1.000000" stroke="none" 
	d="
M174.113159,42.000050 
	C174.113190,34.540279 174.113190,27.580460 174.113190,20.295324 
	C181.466599,20.295324 188.348434,20.295324 195.521103,20.295324 
	C195.521103,22.435629 195.521103,24.358665 195.521103,26.935238 
	C190.936981,26.935238 186.374908,26.935238 181.553833,26.935238 
	C181.553833,30.858795 181.553833,34.134724 181.553833,37.961788 
	C184.170822,38.112484 186.761765,38.261677 189.618378,38.426170 
	C189.789917,43.863953 187.223114,45.970501 181.474548,45.033504 
	C181.474548,51.762909 181.474548,58.146473 181.474548,64.761665 
	C178.868149,64.761665 176.911865,64.761665 174.113129,64.761665 
	C174.113129,57.325432 174.113129,49.912716 174.113159,42.000050 
z"/>
<path fill="#275488" opacity="1.000000" stroke="none" 
	d="
M164.134995,61.761024 
	C163.646347,67.425560 159.911057,63.984730 157.007248,65.319267 
	C157.007248,57.928833 157.007294,51.186417 157.007248,44.444004 
	C157.007233,40.128975 157.043625,35.813499 156.990799,31.499113 
	C156.966370,29.504644 157.681931,27.357565 154.378250,26.600197 
	C153.447464,26.386814 153.291031,22.795677 152.662125,20.285648 
	C156.809128,20.285648 160.059204,20.285648 164.137329,20.285648 
	C164.137329,33.909058 164.137329,47.598110 164.134995,61.761024 
z"/>
<path fill="#285488" opacity="1.000000" stroke="none" 
	d="
M306.497742,73.034821 
	C306.236298,72.795692 305.974823,72.556564 305.399353,71.832016 
	C301.563446,70.009003 298.041534,68.671402 293.987793,67.131813 
	C292.801453,71.875107 291.742615,76.108650 290.573547,80.782829 
	C286.586731,77.305367 282.890778,74.081619 278.601257,70.340103 
	C276.741394,72.208961 274.860046,74.099426 272.623962,75.962753 
	C270.669556,76.727913 269.069885,77.520218 267.065521,78.512962 
	C267.903931,72.725250 268.695465,67.261009 269.551086,61.354259 
	C265.682465,60.537247 262.335785,59.830475 258.671692,59.013912 
	C258.215668,58.106827 257.700012,57.092472 258.010254,56.553562 
	C258.885803,55.032616 260.100372,53.706833 261.180176,52.237640 
	C261.178986,52.171150 261.058594,52.114605 261.440613,52.254879 
	C261.918945,51.947933 262.015259,51.500717 262.077209,51.031364 
	C262.042847,51.009224 262.052795,51.090374 262.575439,51.164898 
	C263.095825,50.656654 263.093567,50.073883 263.116455,49.512589 
	C263.141571,49.534065 263.246033,49.561272 263.637024,49.912258 
	C264.486481,48.862797 265.677765,47.173672 265.261780,46.117710 
	C264.151611,43.299526 262.473114,40.670624 260.762238,38.141178 
	C260.102905,37.166359 258.745880,36.663452 257.706726,35.945541 
	C256.215027,33.723835 254.496216,31.603872 253.417938,29.196966 
	C253.194794,28.698893 255.321609,26.293442 256.420868,26.252375 
	C258.190979,26.186245 260.007233,27.355671 261.509155,28.439329 
	C259.183990,28.548347 257.153748,28.221155 255.123474,27.893965 
	C255.331741,29.674633 255.839172,30.841747 256.536377,30.969006 
	C262.347809,32.029739 268.176056,33.071583 274.044464,33.689072 
	C275.310669,33.822304 277.314453,32.543892 278.015381,31.350182 
	C279.776794,28.350555 280.987549,25.027594 282.726990,21.147415 
	C284.075348,23.406593 284.942627,24.780655 285.733185,26.197502 
	C290.011017,33.864079 288.965027,33.139267 296.492950,30.114475 
	C299.369324,28.958717 302.277588,27.882238 305.539093,26.628218 
	C305.788055,28.946117 305.979706,30.730284 306.262207,33.360241 
	C307.483459,30.997528 308.256378,29.502169 309.029297,28.006805 
	C310.648712,33.219776 312.268127,38.432747 313.571106,43.750011 
	C311.994171,40.025948 308.870514,40.814713 306.033752,40.604805 
	C305.844269,39.936863 305.638214,39.597771 305.432129,39.258678 
	C305.630219,40.152962 305.828308,41.047245 306.054016,42.327274 
	C306.871216,43.957214 307.407501,45.527523 308.502747,46.378105 
	C310.823395,48.180389 313.435547,49.607353 316.415161,51.497101 
	C313.519440,53.208008 311.244629,54.913963 308.700806,55.974880 
	C304.283142,57.817287 304.143250,60.280098 306.595123,63.938183 
	C308.376251,66.595505 309.645294,69.596031 311.230469,72.610443 
	C309.208405,72.791756 307.853058,72.913292 306.497742,73.034821 
M281.576630,57.186192 
	C285.049835,58.945808 288.729187,59.170109 290.727020,55.590843 
	C291.879974,53.525249 292.131775,49.738392 290.948639,47.931381 
	C289.776428,46.141102 286.205597,44.903915 283.840759,45.118767 
	C278.530457,45.601223 277.227692,51.458416 281.576630,57.186192 
z"/>
<path fill="#D9E1EA" opacity="1.000000" stroke="none" 
	d="
M309.100525,27.628317 
	C308.256378,29.502169 307.483459,30.997528 306.262207,33.360241 
	C305.979706,30.730284 305.788055,28.946117 305.539093,26.628218 
	C302.277588,27.882238 299.369324,28.958717 296.492950,30.114475 
	C288.965027,33.139267 290.011017,33.864079 285.733185,26.197502 
	C284.942627,24.780655 284.075348,23.406593 282.726990,21.147415 
	C280.987549,25.027594 279.776794,28.350555 278.015381,31.350182 
	C277.314453,32.543892 275.310669,33.822304 274.044464,33.689072 
	C268.176056,33.071583 262.347809,32.029739 256.536377,30.969006 
	C255.839172,30.841747 255.331741,29.674633 255.123474,27.893965 
	C257.153748,28.221155 259.183990,28.548347 261.610962,28.778904 
	C270.891083,28.462023 277.845917,24.848661 282.312836,16.933874 
	C289.945160,25.603699 298.970734,27.379898 310.208801,22.097996 
	C309.711792,24.566977 309.441772,25.908401 309.100525,27.628317 
z"/>
<path fill="#DAE2EB" opacity="1.000000" stroke="none" 
	d="
M306.017151,40.933655 
	C308.870514,40.814713 311.994171,40.025948 313.509033,44.150665 
	C315.752777,46.859749 317.742065,49.272465 319.970764,51.975491 
	C309.712677,58.082436 309.829163,66.740509 315.635071,76.532738 
	C315.266052,76.883217 314.897003,77.233696 314.527954,77.584183 
	C311.774689,76.339172 309.021393,75.094170 306.382935,73.441994 
	C307.853058,72.913292 309.208405,72.791756 311.230469,72.610443 
	C309.645294,69.596031 308.376251,66.595505 306.595123,63.938183 
	C304.143250,60.280098 304.283142,57.817287 308.700806,55.974880 
	C311.244629,54.913963 313.519440,53.208008 316.415161,51.497101 
	C313.435547,49.607353 310.823395,48.180389 308.502747,46.378105 
	C307.407501,45.527523 306.871216,43.957214 306.061157,42.075226 
	C306.032867,41.269505 306.024994,41.101578 306.017151,40.933655 
z"/>
<path fill="#DAE2EB" opacity="1.000000" stroke="none" 
	d="
M272.978699,75.989883 
	C274.860046,74.099426 276.741394,72.208961 278.601257,70.340103 
	C282.890778,74.081619 286.586731,77.305367 290.573547,80.782829 
	C291.742615,76.108650 292.801453,71.875107 293.987793,67.131813 
	C298.041534,68.671402 301.563446,70.009003 305.307220,71.679604 
	C303.651520,73.541245 301.773895,75.069885 299.489777,76.263092 
	C299.049774,75.622887 299.016327,75.318108 298.991150,75.006775 
	C298.999481,75.000214 299.012451,74.983879 299.267090,74.781616 
	C299.648376,73.686783 299.774994,72.794220 299.927155,71.721870 
	C295.445984,73.399033 295.445984,73.399033 298.297882,77.148102 
	C295.864014,79.378235 293.430145,81.608360 291.358093,83.506943 
	C286.084564,81.853157 280.380890,80.064491 274.314819,77.800926 
	C273.627838,76.880653 273.303253,76.435265 272.978699,75.989883 
M301.482178,72.589157 
	C301.482178,72.589157 301.414886,72.477028 301.482178,72.589157 
M276.516602,75.413635 
	C276.516602,75.413635 276.581146,75.522469 276.516602,75.413635 
z"/>
<path fill="#D5DEE8" opacity="1.000000" stroke="none" 
	d="
M272.623962,75.962746 
	C273.303253,76.435265 273.627838,76.880653 273.977722,77.615494 
	C273.520752,78.023079 272.972748,78.031624 272.565948,78.275597 
	C265.528137,82.496475 265.412201,82.370918 264.883057,74.102974 
	C264.779602,72.486275 263.518280,70.926399 262.722900,69.375206 
	C261.457550,66.907433 260.134979,64.468994 258.897186,61.294216 
	C258.968231,60.088093 258.978699,59.605900 258.989136,59.123703 
	C262.335785,59.830475 265.682465,60.537247 269.551086,61.354259 
	C268.695465,67.261009 267.903931,72.725250 267.065521,78.512962 
	C269.069885,77.520218 270.669556,76.727913 272.623962,75.962746 
z"/>
<path fill="#E2E8EF" opacity="1.000000" stroke="none" 
	d="
M258.671722,59.013912 
	C258.978699,59.605900 258.968231,60.088093 258.932404,60.931278 
	C256.704468,60.758286 254.501892,60.224300 251.753525,59.557999 
	C258.266571,52.722778 257.746002,44.646275 257.777161,36.332691 
	C258.745880,36.663452 260.102905,37.166359 260.762238,38.141178 
	C262.473114,40.670624 264.151611,43.299526 265.261780,46.117710 
	C265.677765,47.173672 264.486481,48.862797 263.848785,49.555389 
	C263.086884,47.479946 262.504211,46.112354 261.921539,44.744762 
	C261.430634,44.886600 260.939697,45.028439 260.448792,45.170280 
	C260.692963,47.548233 260.937134,49.926186 261.181335,52.304138 
	C260.100372,53.706833 258.885803,55.032616 258.010254,56.553562 
	C257.700012,57.092472 258.215668,58.106827 258.671722,59.013912 
z"/>
<path fill="#D8E0E9" opacity="1.000000" stroke="none" 
	d="
M298.464417,77.164093 
	C295.445984,73.399033 295.445984,73.399033 299.927155,71.721870 
	C299.774994,72.794220 299.648376,73.686783 299.207947,74.646561 
	C298.807007,74.666611 298.719818,74.619438 298.632629,74.572258 
	C298.749359,74.719284 298.866119,74.866310 298.982849,75.013336 
	C299.016327,75.318108 299.049774,75.622887 299.135010,76.385414 
	C299.054169,77.042351 298.868896,77.154655 298.464417,77.164093 
z"/>
<path fill="#DEE5ED" opacity="1.000000" stroke="none" 
	d="
M99.271027,34.606621 
	C100.336548,36.292919 101.227707,38.200016 101.881065,40.185368 
	C102.383057,41.710777 102.585526,43.334763 103.023552,45.396679 
	C100.791451,45.396679 98.818451,45.396679 96.255646,45.396679 
	C97.206657,41.738148 98.100487,38.299622 99.271027,34.606621 
z"/>
<path fill="#EEF1F6" opacity="1.000000" stroke="none" 
	d="
M138.979584,51.949234 
	C137.169861,58.119408 135.367142,58.903175 126.532921,57.576500 
	C126.532921,53.716938 126.532921,49.804249 126.535889,45.887554 
	C133.691376,43.787346 137.674332,45.600155 138.979584,51.949234 
z"/>
<path fill="#EDF1F5" opacity="1.000000" stroke="none" 
	d="
M126.633377,27.714800 
	C133.470108,26.664923 135.801880,27.737587 136.241455,31.663389 
	C136.831680,36.934719 134.009079,38.795151 126.380699,37.758060 
	C126.380699,34.581005 126.380699,31.325455 126.633377,27.714800 
z"/>
<path fill="#DEE5ED" opacity="1.000000" stroke="none" 
	d="
M281.247589,56.932106 
	C277.227692,51.458416 278.530457,45.601223 283.840759,45.118767 
	C286.205597,44.903915 289.776428,46.141102 290.948639,47.931381 
	C292.131775,49.738392 291.879974,53.525249 290.727020,55.590843 
	C288.729187,59.170109 285.049835,58.945808 281.247589,56.932106 
M281.207092,49.948292 
	C282.041870,51.878368 282.528076,54.129395 283.872833,55.589951 
	C284.459686,56.227360 287.748413,55.718090 288.158020,54.901165 
	C289.035370,53.151440 289.779114,50.215866 288.891663,48.924438 
	C286.809326,45.894157 283.900604,46.367496 281.207092,49.948292 
z"/>
<path fill="#C3CFDE" opacity="1.000000" stroke="none" 
	d="
M261.180145,52.237648 
	C260.937134,49.926186 260.692963,47.548233 260.448792,45.170280 
	C260.939697,45.028439 261.430634,44.886600 261.921539,44.744762 
	C262.504211,46.112354 263.086884,47.479946 263.457794,49.204403 
	C263.246033,49.561272 263.141571,49.534065 262.917236,49.764450 
	C262.479553,50.360016 262.266174,50.725197 262.052795,51.090378 
	C262.052795,51.090374 262.042847,51.009224 261.825562,51.121506 
	C261.425079,51.527390 261.241821,51.820995 261.058594,52.114605 
	C261.058594,52.114605 261.178986,52.171150 261.180145,52.237648 
z"/>
<path fill="#C3CFDE" opacity="1.000000" stroke="none" 
	d="
M306.033752,40.604805 
	C306.024994,41.101578 306.032867,41.269505 306.033569,41.689484 
	C305.828308,41.047245 305.630219,40.152962 305.432129,39.258678 
	C305.638214,39.597771 305.844269,39.936863 306.033752,40.604805 
z"/>
<path fill="#E2E8EF" opacity="1.000000" stroke="none" 
	d="
M261.440613,52.254879 
	C261.241821,51.820995 261.425079,51.527390 261.859924,51.143642 
	C262.015259,51.500717 261.918945,51.947933 261.440613,52.254879 
z"/>
<path fill="#E2E8EF" opacity="1.000000" stroke="none" 
	d="
M262.575439,51.164902 
	C262.266174,50.725197 262.479553,50.360016 262.892120,49.742973 
	C263.093567,50.073883 263.095825,50.656654 262.575439,51.164902 
z"/>
<path fill="#D8E0E9" opacity="1.000000" stroke="none" 
	d="
M301.448547,72.533096 
	C301.414886,72.477028 301.482178,72.589157 301.448547,72.533096 
z"/>
<path fill="#D8E0E9" opacity="1.000000" stroke="none" 
	d="
M276.548889,75.468048 
	C276.581146,75.522469 276.516602,75.413635 276.548889,75.468048 
z"/>
<path fill="#DAE2EB" opacity="1.000000" stroke="none" 
	d="
M298.991150,75.006775 
	C298.866119,74.866310 298.749359,74.719284 298.632629,74.572258 
	C298.719818,74.619438 298.807007,74.666611 298.953308,74.848831 
	C299.012451,74.983879 298.999481,75.000214 298.991150,75.006775 
z"/>
<path fill="#2E598C" opacity="1.000000" stroke="none" 
	d="
M281.377930,49.591251 
	C283.900604,46.367496 286.809326,45.894157 288.891663,48.924438 
	C289.779114,50.215866 289.035370,53.151440 288.158020,54.901165 
	C287.748413,55.718090 284.459686,56.227360 283.872833,55.589951 
	C282.528076,54.129395 282.041870,51.878368 281.377930,49.591251 
z"/>
</svg>